<svg xmlns="http://www.w3.org/2000/svg" xmlns:xlink="http://www.w3.org/1999/xlink" width="48" zoomAndPan="magnify" viewBox="0 0 36 36.000001" height="48" preserveAspectRatio="xMidYMid meet" version="1.0"><defs><clipPath id="2b2d30bc2b"><path d="M 3.988281 3.503906 L 31.71875 3.503906 L 31.71875 31.234375 L 3.988281 31.234375 Z M 3.988281 3.503906 " clip-rule="nonzero"/></clipPath></defs><g clip-path="url(#2b2d30bc2b)"><path fill="#000000" d="M 17.859375 3.511719 C 10.199219 3.511719 3.988281 9.742188 3.988281 17.433594 C 3.988281 24.339844 9.007812 30.078125 15.578125 31.164062 L 15.578125 21.726562 L 12.046875 21.726562 L 12.046875 17.589844 L 15.578125 17.589844 L 15.578125 14.589844 C 15.578125 11.335938 18.207031 9.128906 21.449219 9.128906 C 22.890625 9.128906 23.792969 9.347656 23.792969 9.347656 L 23.792969 12.816406 L 21.449219 12.816406 C 20.476562 12.816406 19.683594 13.613281 19.683594 14.589844 L 19.683594 17.589844 L 23.46875 17.589844 L 22.941406 21.726562 L 19.683594 21.726562 L 19.683594 31.222656 C 26.472656 30.320312 31.707031 24.484375 31.707031 17.433594 C 31.71875 9.742188 25.511719 3.511719 17.859375 3.511719 Z M 17.859375 3.511719 " fill-opacity="1" fill-rule="nonzero"/></g></svg>