<svg xmlns="http://www.w3.org/2000/svg" xmlns:xlink="http://www.w3.org/1999/xlink" width="48" zoomAndPan="magnify" viewBox="0 0 36 36.000001" height="48" preserveAspectRatio="xMidYMid meet" version="1.0"><defs><clipPath id="c710591df6"><path d="M 3.988281 3.503906 L 31.71875 3.503906 L 31.71875 31.234375 L 3.988281 31.234375 Z M 3.988281 3.503906 " clip-rule="nonzero"/></clipPath></defs><path fill="#000000" d="M 17.855469 14.292969 C 16.160156 14.292969 14.78125 15.675781 14.78125 17.367188 C 14.78125 19.058594 16.160156 20.441406 17.855469 20.441406 C 19.546875 20.441406 20.925781 19.058594 20.925781 17.367188 C 20.925781 15.675781 19.546875 14.292969 17.855469 14.292969 Z M 17.855469 14.292969 " fill-opacity="1" fill-rule="nonzero"/><path fill="#000000" d="M 21.984375 9.828125 L 13.722656 9.828125 C 11.851562 9.828125 10.316406 11.351562 10.316406 13.238281 L 10.316406 21.496094 C 10.316406 23.371094 11.839844 24.90625 13.722656 24.90625 L 21.984375 24.90625 C 23.855469 24.90625 25.394531 23.382812 25.394531 21.496094 L 25.394531 13.238281 C 25.378906 11.351562 23.855469 9.828125 21.984375 9.828125 Z M 17.855469 21.988281 C 15.296875 21.988281 13.21875 19.914062 13.21875 17.355469 C 13.21875 14.796875 15.296875 12.722656 17.855469 12.722656 C 20.410156 12.722656 22.488281 14.796875 22.488281 17.355469 C 22.476562 19.914062 20.398438 21.988281 17.855469 21.988281 Z M 22.8125 13.503906 C 22.199219 13.503906 21.695312 12.996094 21.695312 12.386719 C 21.695312 11.773438 22.199219 11.269531 22.8125 11.269531 C 23.425781 11.269531 23.929688 11.773438 23.929688 12.386719 C 23.929688 13.011719 23.4375 13.503906 22.8125 13.503906 Z M 22.8125 13.503906 " fill-opacity="1" fill-rule="nonzero"/><g clip-path="url(#c710591df6)"><path fill="#000000" d="M 17.855469 3.503906 C 10.195312 3.503906 3.988281 9.707031 3.988281 17.367188 C 3.988281 25.027344 10.195312 31.234375 17.855469 31.234375 C 25.511719 31.234375 31.71875 25.027344 31.71875 17.367188 C 31.707031 9.707031 25.5 3.503906 17.855469 3.503906 Z M 26.941406 21.496094 C 26.941406 24.234375 24.707031 26.464844 21.972656 26.464844 L 13.722656 26.464844 C 10.988281 26.464844 8.753906 24.234375 8.753906 21.496094 L 8.753906 13.238281 C 8.753906 10.5 10.988281 8.269531 13.722656 8.269531 L 21.984375 8.269531 C 24.71875 8.269531 26.953125 10.5 26.953125 13.238281 L 26.953125 21.496094 Z M 26.941406 21.496094 " fill-opacity="1" fill-rule="nonzero"/></g></svg>