<svg xmlns="http://www.w3.org/2000/svg" xmlns:xlink="http://www.w3.org/1999/xlink" width="48" zoomAndPan="magnify" viewBox="0 0 36 36.000001" height="48" preserveAspectRatio="xMidYMid meet" version="1.0"><defs><clipPath id="f2404ba0a9"><path d="M 3.988281 3.503906 L 31.71875 3.503906 L 31.71875 31.234375 L 3.988281 31.234375 Z M 3.988281 3.503906 " clip-rule="nonzero"/></clipPath></defs><g clip-path="url(#f2404ba0a9)"><path fill="#000000" d="M 17.855469 3.503906 C 10.226562 3.503906 3.988281 9.742188 3.988281 17.367188 C 3.988281 24.992188 10.226562 31.234375 17.855469 31.234375 C 25.480469 31.234375 31.71875 24.992188 31.71875 17.367188 C 31.71875 9.742188 25.480469 3.503906 17.855469 3.503906 Z M 23.480469 23.476562 C 23.21875 23.476562 23.089844 23.347656 22.828125 23.214844 C 20.871094 22.042969 18.394531 21.390625 15.785156 21.390625 C 14.351562 21.390625 12.785156 21.652344 11.480469 21.910156 C 11.222656 21.910156 10.960938 22.042969 10.832031 22.042969 C 10.308594 22.042969 9.917969 21.652344 9.917969 21.128906 C 9.917969 20.609375 10.179688 20.21875 10.699219 20.21875 C 12.394531 19.824219 14.089844 19.566406 15.917969 19.566406 C 18.917969 19.566406 21.65625 20.347656 24.003906 21.652344 C 24.265625 21.914062 24.523438 22.042969 24.523438 22.5625 C 24.261719 23.214844 23.871094 23.476562 23.480469 23.476562 Z M 24.914062 19.824219 C 24.652344 19.824219 24.390625 19.695312 24.128906 19.566406 C 21.914062 18.128906 18.78125 17.347656 15.394531 17.347656 C 13.699219 17.347656 12.132812 17.609375 10.960938 17.871094 C 10.699219 18 10.566406 18 10.308594 18 C 9.65625 18 9.261719 17.476562 9.261719 16.957031 C 9.261719 16.304688 9.523438 16.042969 10.175781 15.78125 C 11.742188 15.390625 13.304688 15 15.523438 15 C 19.175781 15 22.566406 15.910156 25.433594 17.609375 C 25.828125 17.867188 26.085938 18.257812 26.085938 18.652344 C 25.957031 19.304688 25.566406 19.824219 24.914062 19.824219 Z M 26.609375 15.652344 C 26.347656 15.652344 26.21875 15.519531 25.828125 15.390625 C 23.21875 13.957031 19.4375 13.042969 15.785156 13.042969 C 13.957031 13.042969 12 13.304688 10.304688 13.695312 C 10.046875 13.695312 9.914062 13.824219 9.523438 13.824219 C 8.742188 13.957031 8.21875 13.304688 8.21875 12.523438 C 8.21875 11.738281 8.609375 11.347656 9.132812 11.21875 C 11.21875 10.695312 13.4375 10.433594 15.785156 10.433594 C 19.828125 10.433594 24 11.347656 27.261719 13.042969 C 27.652344 13.304688 28.042969 13.695312 28.042969 14.347656 C 27.914062 15.128906 27.390625 15.652344 26.609375 15.652344 Z M 26.609375 15.652344 " fill-opacity="1" fill-rule="nonzero"/></g></svg>