<svg xmlns="http://www.w3.org/2000/svg" xmlns:xlink="http://www.w3.org/1999/xlink" width="3500" zoomAndPan="magnify" viewBox="0 0 2625 2624.999883" height="3500" preserveAspectRatio="xMidYMid meet" version="1.0"><defs><clipPath id="2646eca4b2"><path d="M 542 229 L 2138 229 L 2138 2405 L 542 2405 Z M 542 229 " clip-rule="nonzero"/></clipPath><clipPath id="d62659e51a"><path d="M 840.9375 95.765625 L 2197.390625 353.65625 L 1783.726562 2529.433594 L 427.273438 2271.539062 Z M 840.9375 95.765625 " clip-rule="nonzero"/></clipPath><clipPath id="ea5d40ddbb"><path d="M 840.9375 95.765625 L 2197.390625 353.65625 L 1783.726562 2529.433594 L 427.273438 2271.539062 Z M 840.9375 95.765625 " clip-rule="nonzero"/></clipPath><clipPath id="c9cc584642"><path d="M 591 278 L 2089 278 L 2089 2356 L 591 2356 Z M 591 278 " clip-rule="nonzero"/></clipPath><clipPath id="b5818ffb39"><path d="M 840.9375 95.765625 L 2197.390625 353.65625 L 1783.726562 2529.433594 L 427.273438 2271.539062 Z M 840.9375 95.765625 " clip-rule="nonzero"/></clipPath><clipPath id="9aade0d4ad"><path d="M 840.9375 95.765625 L 2197.390625 353.65625 L 1783.726562 2529.433594 L 427.273438 2271.539062 Z M 840.9375 95.765625 " clip-rule="nonzero"/></clipPath><clipPath id="9168ebc44d"><path d="M 628 315 L 2052 315 L 2052 2319 L 628 2319 Z M 628 315 " clip-rule="nonzero"/></clipPath><clipPath id="9e6f17c236"><path d="M 840.9375 95.765625 L 2197.390625 353.65625 L 1783.726562 2529.433594 L 427.273438 2271.539062 Z M 840.9375 95.765625 " clip-rule="nonzero"/></clipPath><clipPath id="c5c7bd2daf"><path d="M 840.9375 95.765625 L 2197.390625 353.65625 L 1783.726562 2529.433594 L 427.273438 2271.539062 Z M 840.9375 95.765625 " clip-rule="nonzero"/></clipPath></defs><g clip-path="url(#2646eca4b2)"><g clip-path="url(#d62659e51a)"><g clip-path="url(#ea5d40ddbb)"><path fill="#e4e2dd" d="M 1223.941406 877.625 C 1230.109375 832.261719 1236.582031 786.8125 1243.058594 741.359375 C 1257.734375 639.082031 1272.796875 536.296875 1283.378906 433.53125 C 1292.351562 346.0625 1339.617188 269.203125 1425.554688 240.449219 C 1454.277344 230.734375 1484.898438 227.742188 1514.996094 231.296875 C 1544.953125 234.824219 1574.109375 244.847656 1599.84375 260.722656 C 1677.484375 308.292969 1708.136719 394.042969 1697.003906 482.253906 L 1673.015625 671.5 L 1724.410156 507.550781 C 1724.816406 506.183594 1725.140625 505.234375 1725.683594 503.894531 L 1726.582031 501.460938 C 1727.070312 500.398438 1727.535156 499.476562 1728.027344 498.414062 C 1766.933594 417.648438 1848.433594 375.769531 1936.34375 381.5 C 1964.726562 383.425781 1992.992188 390.535156 2018.964844 402.121094 C 2044.910156 413.84375 2068.753906 430.519531 2087.234375 450.363281 L 2088.300781 451.578125 C 2088.808594 451.964844 2089.144531 452.460938 2089.625 452.984375 C 2146.902344 516.484375 2149.738281 598.824219 2114.902344 674.144531 L 1825.644531 1542.804688 C 1846.304688 1567.113281 1859.492188 1595.777344 1865.09375 1628.636719 C 1872.222656 1670.171875 1866.027344 1712.640625 1857.003906 1753.269531 C 1850.359375 1783.65625 1844.464844 1813.898438 1838.65625 1844.445312 L 1829.746094 1891.3125 C 1780.402344 2151.613281 1615.308594 2344.382812 1351.457031 2393.214844 C 1263.53125 2409.597656 1172.316406 2407.574219 1084.742188 2390.203125 C 997.171875 2372.828125 911.980469 2339.867188 835.933594 2293.035156 C 619.460938 2159.527344 504.21875 1933.550781 554.082031 1678.117188 L 653.441406 1169.203125 C 650.828125 1096.300781 684.402344 1031.433594 746.75 992.269531 C 770.714844 977.171875 797.671875 966.832031 825.492188 961.859375 C 826.382812 961.738281 827.132812 961.59375 828.019531 961.472656 L 828.605469 961.441406 C 855.453125 957.007812 883.15625 957.214844 908.984375 962.703125 L 910.238281 962.941406 C 920.390625 965.015625 930.386719 967.929688 939.96875 971.484375 C 956 938.835938 981.015625 911.363281 1013.199219 891.03125 C 1037.136719 876.074219 1064.070312 865.875 1091.914062 860.761719 C 1119.734375 855.789062 1148.460938 855.90625 1176.132812 861.597656 C 1192.949219 865.085938 1208.980469 870.445312 1223.941406 877.625 " fill-opacity="1" fill-rule="evenodd"/></g></g></g><g clip-path="url(#c9cc584642)"><g clip-path="url(#b5818ffb39)"><g clip-path="url(#9aade0d4ad)"><path fill="#f1f3f5" d="M 1260.917969 972.671875 C 1269.746094 902.664062 1280.652344 825.539062 1291.5625 748.414062 C 1307.207031 639.527344 1322.597656 530.445312 1332.113281 438.605469 C 1340.753906 354.398438 1386.667969 305.175781 1441.140625 286.914062 C 1463.199219 279.546875 1486.589844 277.347656 1509.332031 280.082031 C 1532.074219 282.8125 1554.332031 290.371094 1574.125 302.515625 C 1624.21875 333.140625 1658.992188 392.648438 1648.3125 476.175781 L 1555.027344 1212.277344 L 1771.203125 522.085938 L 1772.238281 519.679688 C 1804.097656 453.1875 1869.875 426.382812 1933.101562 430.453125 C 1955.777344 432.019531 1978.265625 437.59375 1998.757812 446.839844 C 2019.113281 456.054688 2037.355469 468.773438 2052.09375 484.726562 L 2053.1875 485.804688 C 2089.339844 525.917969 2103.144531 584.761719 2069.246094 655.925781 L 1769.457031 1556.402344 C 1797.507812 1579.078125 1811.546875 1606.316406 1816.847656 1636.953125 C 1822.386719 1669.367188 1817.515625 1704.863281 1809.1875 1742.589844 C 1800.269531 1782.660156 1797.695312 1796.191406 1790.410156 1835.273438 L 1781.5 1882.140625 C 1728.179688 2163.363281 1547.5625 2307.078125 1342.566406 2344.988281 C 1261.535156 2360.078125 1176.613281 2358.386719 1094.199219 2341.992188 C 1012.035156 2325.792969 932.40625 2294.757812 861.789062 2251.269531 C 677.238281 2137.5625 553.367188 1937.980469 602.136719 1687.542969 L 702.746094 1172.796875 C 698.550781 1108.988281 729 1061.300781 772.808594 1033.789062 C 791.515625 1022.027344 812.539062 1014.027344 834.214844 1010.199219 L 835.855469 1009.933594 C 856.921875 1006.277344 878.832031 1006.542969 899.835938 1010.824219 L 900.253906 1010.902344 C 925.523438 1016.285156 949.542969 1027.5 969.585938 1045.1875 C 974.007812 994.578125 1001.816406 956.21875 1039.257812 932.550781 C 1057.796875 920.902344 1078.960938 912.929688 1100.640625 909.101562 C 1122.34375 905.136719 1144.863281 905.226562 1166.257812 909.726562 C 1203.660156 917.417969 1238.066406 937.832031 1260.917969 972.671875 " fill-opacity="1" fill-rule="nonzero"/></g></g></g><g clip-path="url(#9168ebc44d)"><g clip-path="url(#9e6f17c236)"><g clip-path="url(#c5c7bd2daf)"><path fill="#2b2b2b" d="M 1049.898438 1422.199219 C 1054.203125 1423.886719 1057.515625 1426.972656 1059.527344 1430.824219 L 1434.273438 1704.550781 C 1442.402344 1710.429688 1444.265625 1721.914062 1438.21875 1730.160156 C 1432.339844 1738.289062 1420.859375 1740.15625 1412.730469 1734.273438 L 1052.449219 1471.101562 C 1037.632812 1508.75 1013.074219 1534.578125 983.964844 1550.140625 C 959.367188 1563.242188 931.582031 1568.800781 904.09375 1567.476562 C 894.792969 1567.007812 885.625 1565.84375 876.472656 1563.8125 C 857.597656 1560.515625 839.214844 1553.839844 822.589844 1544.03125 C 791.429688 1525.53125 766.125 1496.007812 753.832031 1455.804688 L 753.425781 1454.136719 L 753.226562 1453.667969 L 752.820312 1452 C 751.210938 1446.78125 749.9375 1441.335938 749.105469 1435.828125 L 747.25 1425.070312 L 720 1275.078125 L 638.085938 1694.519531 C 592.628906 1927.523438 708.496094 2113.730469 881.007812 2220.09375 C 948.011719 2261.304688 1023.617188 2290.710938 1101.433594 2306.226562 C 1179.132812 2321.578125 1259.457031 2323.117188 1335.960938 2309.046875 C 1527.039062 2273.691406 1695.378906 2139.058594 1745.527344 1875.300781 L 1754.4375 1828.433594 C 1761.96875 1788.820312 1764.480469 1774.84375 1773.371094 1734.914062 C 1780.820312 1701.066406 1785.3125 1669.835938 1780.714844 1643.089844 C 1776.585938 1618.460938 1764.242188 1596.746094 1738.464844 1578.835938 L 1737.425781 1578.207031 L 1297.265625 1269.351562 L 1296.984375 1269.300781 L 1296.875 1269.132812 L 1295.699219 1268.476562 L 1206.890625 1205.921875 L 1183.800781 1189.828125 L 1182.425781 1188.699219 L 1181.582031 1187.816406 L 1181.1875 1187.597656 L 1177.316406 1184.402344 L 1176.785156 1184.15625 L 1175.917969 1183.414062 L 1174.402344 1182.257812 C 1137.730469 1154.765625 1099.398438 1148.921875 1065.597656 1157.238281 L 1065.292969 1157.324219 L 1063.183594 1157.789062 L 1062.878906 1157.875 L 1061.488281 1158.335938 L 1060.128906 1158.652344 L 1058.90625 1159 L 1058.742188 1159.113281 L 1057.492188 1159.597656 L 1056.105469 1160.058594 L 1054.746094 1160.375 C 1040.652344 1165.355469 1027.246094 1172.78125 1015.339844 1182.222656 L 1014.507812 1182.789062 L 1013.292969 1183.855469 L 1012.628906 1184.308594 C 1003.183594 1192.195312 994.503906 1201.386719 987.054688 1211.675781 L 986.476562 1212.433594 C 973.949219 1229.707031 965.117188 1249.5625 961.445312 1270.398438 L 960.726562 1274.164062 L 960.628906 1275.445312 L 960.417969 1276.5625 L 960.289062 1277.980469 L 960.265625 1278.121094 L 960.21875 1279.125 L 959.980469 1280.378906 L 959.878906 1281.660156 L 959.832031 1282.664062 L 959.78125 1282.945312 L 959.679688 1284.226562 L 959.6875 1284.949219 C 957.308594 1321.785156 971.289062 1360.71875 1008.644531 1392.96875 L 1008.898438 1393.160156 L 1010.132812 1394.261719 L 1010.777344 1394.671875 L 1011.03125 1394.867188 L 1011.394531 1395.222656 L 1012.628906 1396.328125 L 1013.890625 1397.289062 L 1014.535156 1397.699219 L 1015.773438 1398.800781 L 1016.414062 1399.214844 L 1017.035156 1399.765625 L 1017.675781 1400.175781 L 1018.914062 1401.277344 L 1019.695312 1401.714844 L 1020.3125 1402.269531 Z M 1738.316406 1534.007812 L 2035.808594 641.042969 C 2062.589844 585.289062 2052.953125 540.242188 2025.972656 510.402344 L 2025.15625 509.378906 C 2013.878906 497.261719 1999.585938 487.320312 1983.875 480.285156 C 1967.519531 472.839844 1949.160156 468.335938 1930.609375 467.121094 C 1881.390625 463.835938 1830.582031 484.09375 1805.839844 534.453125 C 1733.554688 764.953125 1665.59375 1005.382812 1587.175781 1232.410156 C 1582.925781 1244.898438 1573.078125 1251.84375 1561.964844 1254.066406 L 1560.492188 1254.21875 C 1555.878906 1254.929688 1550.976562 1254.867188 1546.261719 1253.824219 C 1541.105469 1252.84375 1536.15625 1250.746094 1531.8125 1247.753906 C 1522.398438 1241.050781 1516.035156 1230.445312 1517.65625 1216.589844 L 1611.941406 471.429688 C 1620.464844 404.542969 1593.714844 357.546875 1555.019531 333.859375 C 1539.761719 324.453125 1522.527344 318.574219 1505 316.542969 C 1487.496094 314.371094 1469.558594 316.019531 1452.714844 321.777344 C 1410.921875 335.65625 1375.578125 374.894531 1368.644531 442.515625 C 1359.308594 532.65625 1343.625 643.273438 1327.855469 753.582031 C 1312.976562 858.421875 1297.960938 963.238281 1288.480469 1052.628906 L 1321.847656 1237.316406 L 1321.910156 1237.761719 L 1322.847656 1242.710938 Z M 1021.613281 1448.617188 L 999.300781 1432.234375 L 998.40625 1431.632812 L 996.132812 1429.898438 L 995.996094 1429.871094 L 995.238281 1429.296875 L 994.507812 1428.578125 L 992.992188 1427.421875 L 992.097656 1426.820312 L 991.339844 1426.242188 L 990.609375 1425.523438 L 988.335938 1423.792969 L 987.605469 1423.074219 L 984.746094 1420.652344 L 983.988281 1420.074219 L 983.257812 1419.359375 L 982.5 1418.78125 L 981.769531 1418.0625 C 937.4375 1378.417969 920.507812 1330.683594 922.859375 1284.882812 L 923.011719 1283.324219 L 922.953125 1282.878906 L 923.050781 1281.597656 L 923.355469 1278.476562 L 923.453125 1277.195312 L 923.535156 1276.773438 L 923.6875 1275.214844 L 923.707031 1274.351562 L 923.839844 1273.652344 L 924.015625 1271.953125 L 924.308594 1270.417969 L 924.460938 1268.859375 L 925.070312 1265.648438 L 925.222656 1264.089844 L 925.832031 1260.882812 L 926.132812 1260.070312 L 926.875 1256.164062 L 927.304688 1254.65625 L 927.675781 1252.703125 L 928.027344 1251.613281 L 928.054688 1251.476562 L 928.40625 1250.386719 L 928.617188 1249.269531 L 928.917969 1248.460938 L 928.996094 1248.042969 L 929.347656 1246.953125 L 929.375 1246.8125 L 929.726562 1245.722656 L 929.964844 1244.46875 L 930.238281 1243.796875 L 930.457031 1243.40625 L 930.695312 1242.148438 L 931.046875 1241.058594 L 931.265625 1240.667969 L 931.5625 1239.859375 L 931.695312 1239.160156 L 931.941406 1238.628906 L 932.265625 1237.679688 L 932.292969 1237.539062 L 932.671875 1236.3125 L 932.835938 1236.199219 L 933.164062 1235.25 L 933.40625 1234.71875 L 933.539062 1234.019531 L 933.839844 1233.210938 L 934.03125 1232.957031 L 934.410156 1231.726562 L 934.574219 1231.613281 L 934.902344 1230.664062 L 935.144531 1230.132812 L 935.417969 1229.460938 L 935.71875 1228.652344 L 935.769531 1228.375 L 936.261719 1227.308594 L 936.289062 1227.171875 L 936.777344 1226.109375 L 936.996094 1225.714844 L 937.269531 1225.046875 L 937.566406 1224.234375 L 937.789062 1223.84375 L 938.769531 1221.71875 L 938.988281 1221.324219 L 939.285156 1220.515625 L 939.558594 1219.84375 L 939.777344 1219.453125 L 940.269531 1218.390625 L 940.925781 1217.214844 L 940.980469 1216.933594 L 941.417969 1216.152344 L 941.6875 1215.480469 L 942.046875 1215.113281 L 942.511719 1214.191406 L 942.566406 1213.910156 L 943.195312 1212.875 L 943.222656 1212.734375 L 943.6875 1211.8125 L 943.933594 1211.28125 L 944.78125 1209.851562 L 944.835938 1209.574219 L 945.464844 1208.539062 L 945.492188 1208.398438 L 946.09375 1207.5 L 946.3125 1207.109375 L 946.726562 1206.464844 L 947.164062 1205.679688 L 947.355469 1205.429688 L 947.988281 1204.390625 L 948.011719 1204.253906 L 948.644531 1203.214844 L 948.695312 1202.9375 L 949.273438 1202.179688 L 949.6875 1201.535156 L 949.90625 1201.144531 L 952.566406 1197.023438 L 953.03125 1196.101562 L 953.195312 1195.988281 L 953.964844 1194.980469 L 953.992188 1194.839844 L 954.597656 1193.941406 L 954.957031 1193.578125 L 955.199219 1193.046875 L 955.804688 1192.148438 L 955.96875 1192.035156 L 956.742188 1191.027344 L 956.765625 1190.886719 L 957.371094 1189.988281 C 960.695312 1185.417969 964.441406 1180.929688 968.15625 1176.578125 L 968.324219 1176.464844 L 968.707031 1175.957031 L 969.039062 1175.734375 L 969.230469 1175.480469 L 969.78125 1174.863281 L 970.359375 1174.105469 L 970.691406 1173.878906 L 970.882812 1173.625 L 971.242188 1173.261719 L 971.628906 1172.757812 L 972.152344 1172.277344 L 972.316406 1172.164062 L 973.089844 1171.15625 L 973.421875 1170.929688 L 973.777344 1170.5625 L 974.164062 1170.058594 L 974.6875 1169.582031 L 974.855469 1169.46875 L 975.046875 1169.214844 L 975.570312 1168.738281 L 975.738281 1168.625 L 975.957031 1168.230469 L 976.621094 1167.78125 L 976.839844 1167.386719 L 977.363281 1166.910156 L 977.390625 1166.769531 L 977.722656 1166.542969 L 978.246094 1166.066406 L 978.273438 1165.925781 L 978.605469 1165.699219 L 979.128906 1165.222656 L 979.292969 1165.109375 L 980.011719 1164.378906 L 980.175781 1164.265625 L 980.894531 1163.535156 L 981.058594 1163.421875 L 981.777344 1162.691406 L 981.941406 1162.578125 L 982.300781 1162.210938 L 982.800781 1161.871094 L 984.207031 1160.550781 L 977.070312 1121.328125 C 961.992188 1078.285156 929 1054.234375 892.4375 1046.707031 C 876.035156 1043.296875 858.71875 1043.183594 842.015625 1045.933594 L 840.488281 1046.367188 C 823.453125 1049.34375 806.78125 1055.710938 792.335938 1064.816406 C 759.683594 1085.34375 736.886719 1120.898438 739.203125 1168.746094 L 739.433594 1169.800781 L 785.121094 1429.527344 C 791.738281 1466.914062 814.753906 1495.570312 844.285156 1512.746094 C 856.515625 1519.839844 869.730469 1524.8125 883.457031 1527.855469 C 889.730469 1529.046875 896.109375 1529.683594 902.597656 1529.757812 C 924.011719 1530.363281 945.542969 1525.785156 964.792969 1515.714844 C 989.78125 1502.832031 1010.667969 1480.355469 1021.613281 1448.617188 Z M 1018.71875 1136.328125 L 1020.796875 1135.277344 L 1021.101562 1135.191406 L 1021.90625 1134.765625 L 1024.621094 1133.402344 L 1025.894531 1132.777344 C 1071.8125 1110.871094 1127.558594 1109.472656 1181.097656 1142.488281 L 1182.777344 1143.527344 L 1183.535156 1144.105469 L 1184.429688 1144.710938 L 1186.109375 1145.753906 L 1186.503906 1145.972656 L 1187.789062 1146.792969 L 1189.445312 1147.976562 L 1189.582031 1148.003906 L 1192.5 1150.144531 L 1192.636719 1150.171875 L 1197.574219 1153.855469 L 1198.441406 1154.601562 L 1200.851562 1156.359375 L 1201.472656 1156.910156 L 1207.335938 1161.78125 L 1280.25 1212.933594 L 1252.34375 1058.042969 L 1252.367188 1057.90625 C 1251.96875 1056.960938 1251.875 1055.933594 1251.785156 1054.902344 L 1249.582031 1042.921875 C 1239.128906 985.4375 1201.558594 954.304688 1158.886719 945.46875 C 1142.039062 942.121094 1124.304688 941.929688 1107.101562 945.015625 C 1090.039062 948.132812 1073.511719 954.527344 1058.785156 963.578125 C 1022.007812 986.792969 997.632812 1029.128906 1007.921875 1086.726562 L 1012.53125 1111.882812 C 1014.96875 1119.574219 1017.1875 1127.65625 1018.71875 1136.328125 " fill-opacity="1" fill-rule="nonzero"/></g></g></g></svg>