<svg xmlns="http://www.w3.org/2000/svg" xmlns:xlink="http://www.w3.org/1999/xlink" width="48" zoomAndPan="magnify" viewBox="0 0 36 36.000001" height="48" preserveAspectRatio="xMidYMid meet" version="1.0"><defs><clipPath id="c3b35657b9"><path d="M 3.988281 3.503906 L 31.71875 3.503906 L 31.71875 31.234375 L 3.988281 31.234375 Z M 3.988281 3.503906 " clip-rule="nonzero"/></clipPath></defs><g clip-path="url(#c3b35657b9)"><path fill="#000000" d="M 17.855469 31.234375 C 10.191406 31.234375 3.988281 25.03125 3.988281 17.367188 C 3.988281 9.703125 10.191406 3.503906 17.855469 3.503906 C 25.515625 3.503906 31.71875 9.703125 31.71875 17.367188 C 31.71875 25.03125 25.519531 31.234375 17.855469 31.234375 Z M 17.855469 31.234375 " fill-opacity="1" fill-rule="nonzero"/></g><path fill="#ffffff" d="M 25.957031 12.417969 C 24.152344 12.417969 22.691406 10.960938 22.691406 9.15625 L 19.429688 9.15625 L 19.429688 19.761719 C 19.429688 21.5625 17.96875 23.023438 16.167969 23.023438 C 14.367188 23.023438 12.90625 21.5625 12.90625 19.761719 C 12.90625 17.957031 14.367188 16.496094 16.167969 16.496094 L 16.167969 13.234375 C 12.566406 13.234375 9.644531 16.15625 9.644531 19.761719 C 9.644531 23.363281 12.566406 26.285156 16.167969 26.285156 C 19.773438 26.285156 22.691406 23.363281 22.691406 19.761719 L 22.691406 14.808594 C 23.652344 15.363281 24.765625 15.683594 25.957031 15.683594 Z M 25.957031 12.417969 " fill-opacity="1" fill-rule="nonzero"/><path fill="#ffffff" d="M 16.167969 9.972656 C 15.71875 9.972656 15.351562 9.609375 15.351562 9.15625 L 15.351562 8.34375 C 15.351562 7.890625 15.71875 7.527344 16.167969 7.527344 C 16.617188 7.527344 16.984375 7.890625 16.984375 8.34375 L 16.984375 9.15625 C 16.984375 9.609375 16.617188 9.972656 16.167969 9.972656 Z M 16.167969 9.972656 " fill-opacity="1" fill-rule="nonzero"/><path fill="#ffffff" d="M 13.722656 11.605469 C 13.269531 11.605469 12.90625 11.238281 12.90625 10.789062 L 12.90625 9.15625 C 12.90625 8.707031 13.269531 8.34375 13.722656 8.34375 C 14.171875 8.34375 14.539062 8.707031 14.539062 9.15625 L 14.539062 10.789062 C 14.539062 11.238281 14.171875 11.605469 13.722656 11.605469 Z M 13.722656 11.605469 " fill-opacity="1" fill-rule="nonzero"/></svg>