<svg xmlns="http://www.w3.org/2000/svg" xmlns:xlink="http://www.w3.org/1999/xlink" width="48" zoomAndPan="magnify" viewBox="0 0 36 36.000001" height="48" preserveAspectRatio="xMidYMid meet" version="1.0"><defs><clipPath id="769ebfbe8c"><path d="M 3.988281 3.503906 L 31.71875 3.503906 L 31.71875 31.234375 L 3.988281 31.234375 Z M 3.988281 3.503906 " clip-rule="nonzero"/></clipPath></defs><g clip-path="url(#769ebfbe8c)"><path fill="#000000" d="M 17.855469 3.503906 C 10.195312 3.503906 3.988281 9.707031 3.988281 17.367188 C 3.988281 25.027344 10.195312 31.234375 17.855469 31.234375 C 25.511719 31.234375 31.71875 25.027344 31.71875 17.367188 C 31.707031 9.707031 25.5 3.503906 17.855469 3.503906 Z M 25.835938 21.246094 C 25.679688 22.265625 24.792969 23.007812 23.761719 23.007812 L 11.9375 23.007812 C 10.902344 23.007812 10.015625 22.265625 9.859375 21.246094 C 9.714844 20.296875 9.570312 18.976562 9.558594 17.355469 C 9.570312 15.734375 9.703125 14.425781 9.859375 13.464844 C 10.015625 12.445312 10.902344 11.703125 11.9375 11.703125 L 23.761719 11.703125 C 24.792969 11.703125 25.679688 12.445312 25.835938 13.464844 C 25.980469 14.414062 26.125 15.734375 26.136719 17.355469 C 26.125 18.976562 25.980469 20.296875 25.835938 21.246094 Z M 25.835938 21.246094 " fill-opacity="1" fill-rule="nonzero"/></g><path fill="#000000" d="M 16.101562 15.109375 L 16.101562 19.613281 L 20.289062 17.367188 Z M 16.101562 15.109375 " fill-opacity="1" fill-rule="nonzero"/></svg>